<?xml version="1.0" standalone="no"?>
<!DOCTYPE svg PUBLIC "-//W3C//DTD SVG 20010904//EN"
 "http://www.w3.org/TR/2001/REC-SVG-20010904/DTD/svg10.dtd">
<svg version="1.0" xmlns="http://www.w3.org/2000/svg"
 width="1400.000000pt" height="720.000000pt" viewBox="0 0 1400.000000 720.000000"
 preserveAspectRatio="xMidYMid meet">

<g transform="translate(0.000000,720.000000) scale(0.100000,-0.100000)"
fill="#000000" stroke="none">
<path d="M8840 6807 c-19 -5 -46 -17 -61 -28 -14 -10 -29 -16 -32 -13 -12 12
-87 -18 -106 -43 -47 -59 -16 -168 58 -205 57 -29 62 -37 53 -102 l-7 -59 -65
-16 c-134 -35 -254 -135 -315 -262 -34 -72 -35 -75 -35 -204 l0 -130 90 -45
c49 -25 89 -47 90 -50 0 -3 -19 -14 -43 -25 -39 -19 -70 -20 -507 -25 l-465
-5 -67 -33 c-122 -60 -169 -145 -178 -320 l-5 -113 -29 30 -30 31 -293 0 -293
0 0 -595 0 -595 29 0 c28 0 30 -3 33 -42 l3 -43 293 -3 292 -2 0 -195 0 -195
-107 0 c-60 0 -125 -5 -146 -11 -50 -14 -100 -59 -126 -114 -20 -43 -21 -60
-21 -363 0 -306 -1 -320 -20 -337 -27 -25 -27 -105 1 -165 14 -29 21 -66 22
-105 l0 -60 4 53 c2 28 7 52 11 52 4 -1 17 -9 30 -20 18 -15 23 -27 20 -57
l-3 -38 -79 -10 c-72 -9 -81 -13 -118 -49 -123 -122 -228 -363 -228 -525 0
-31 -5 -85 -10 -121 -10 -72 -1 -161 17 -167 6 -2 21 16 32 42 18 40 23 45 44
40 l25 -7 4 164 5 163 48 85 49 85 9 -45 c11 -54 -7 -375 -24 -417 -7 -17 -13
-135 -16 -308 l-5 -280 -45 -215 c-25 -118 -47 -249 -50 -291 l-4 -75 151 -15
c83 -8 154 -11 157 -6 13 21 -20 65 -60 81 -23 9 -53 24 -65 34 l-24 18 65
210 c36 116 77 275 93 359 l28 149 28 -109 c26 -106 27 -119 28 -370 0 -143 3
-290 7 -327 l6 -68 148 0 c118 0 149 3 149 13 0 22 -31 42 -93 61 -32 9 -61
24 -64 32 -3 8 11 144 30 302 l36 287 -25 210 c-17 147 -27 290 -31 477 l-6
268 909 0 909 0 51 24 c32 15 59 36 70 55 l18 31 203 0 c129 0 203 4 203 10 0
6 -73 10 -199 10 l-199 0 9 38 c5 20 9 63 9 95 l0 57 1660 0 1660 0 0 -44 c0
-23 3 -70 6 -102 l6 -59 -986 3 -986 2 0 40 0 40 -484 0 -483 0 -7 -92 c-3
-50 -6 -185 -6 -300 l0 -208 490 0 490 0 0 248 0 248 40 -4 40 -4 0 -289 0
-289 -475 0 -475 0 0 40 c0 29 -4 40 -15 40 -11 0 -15 -12 -15 -50 l0 -50 503
2 502 3 3 303 2 302 924 0 c833 0 924 -2 930 -16 9 -25 7 -112 -3 -116 -5 -2
-15 -175 -22 -388 l-12 -385 32 -225 c18 -124 35 -236 38 -250 4 -23 -1 -27
-61 -48 -83 -30 -116 -55 -98 -74 16 -16 299 -15 315 1 11 11 12 183 2 461 -7
172 -5 198 21 370 l28 185 37 -220 c26 -154 55 -282 96 -427 l60 -207 -46 -45
c-57 -56 -86 -102 -70 -111 19 -12 92 5 184 44 84 35 90 40 90 67 0 16 3 34 7
39 3 6 -15 109 -42 230 l-48 220 -16 375 c-11 248 -13 376 -6 378 6 2 10 85
10 223 l0 220 62 -3 c61 -3 63 -4 84 -41 17 -31 23 -67 32 -215 7 -97 12 -205
12 -239 0 -48 3 -63 14 -63 8 0 16 6 19 13 2 6 13 -6 25 -29 11 -22 28 -47 37
-54 15 -12 19 -12 32 5 12 16 13 55 10 215 -4 170 -17 293 -43 396 -4 16 4 27
35 47 26 17 47 42 60 73 21 46 21 60 21 951 0 814 -2 907 -16 936 -23 45 -44
66 -86 88 -34 17 -62 19 -318 19 l-280 0 0 368 c0 335 -2 370 -19 407 -20 44
-51 76 -95 99 -28 14 -29 17 -31 96 l-2 82 111 -4 c85 -3 122 -9 157 -25 60
-27 118 -85 149 -148 25 -50 25 -51 30 -430 3 -211 9 -373 13 -363 5 9 7 178
5 375 -4 312 -7 364 -22 405 -25 66 -95 141 -163 174 -48 24 -71 28 -170 32
-62 3 -113 8 -113 12 0 10 -53 16 -282 31 -113 8 -178 17 -177 23 0 6 40 85
88 175 l88 164 92 22 c161 39 150 65 -28 73 l-120 5 -6 -26 c-4 -15 -12 -25
-18 -24 -5 1 -62 -71 -126 -160 -64 -89 -120 -166 -126 -172 -7 -6 -66 -1
-170 14 -88 13 -161 24 -163 24 -2 1 6 13 17 27 42 54 36 137 -14 184 -23 22
-35 24 -123 24 -115 1 -144 14 -207 98 -61 79 -77 86 -163 65 -76 -18 -118
-15 -194 18 -92 38 -155 7 -212 -104 l-18 -33 34 -32 c18 -17 41 -46 50 -64
21 -39 73 -72 114 -72 31 0 32 -1 24 -35 -9 -39 -49 -98 -84 -120 -13 -8 -103
-25 -216 -40 -221 -28 -255 -36 -255 -56 0 -16 39 -26 111 -28 35 -1 54 -6 57
-15 3 -8 21 -16 39 -19 18 -2 -20 -5 -85 -5 -113 -2 -118 -1 -127 21 -114 281
-132 317 -156 317 -13 0 -24 -4 -24 -9 0 -4 27 -68 60 -141 33 -73 60 -135 60
-136 0 -2 -207 -4 -459 -4 l-460 0 -55 38 c-30 20 -55 39 -56 42 0 3 32 23 70
45 38 22 70 45 70 50 0 6 -7 66 -14 135 -20 174 -45 237 -124 323 -64 67 -140
104 -254 122 l-38 6 0 52 c0 48 4 56 36 88 45 43 74 102 74 154 0 44 -27 112
-53 133 -25 21 -78 30 -117 19z m-31 -167 c26 -16 63 -36 84 -45 20 -8 37 -21
37 -28 0 -8 -11 -36 -25 -63 -19 -37 -25 -62 -23 -102 2 -62 -15 -85 -62 -85
-49 0 -59 18 -50 93 7 55 6 68 -11 91 -11 15 -22 40 -25 56 -6 29 11 113 23
113 3 0 27 -13 52 -30z m2062 -634 c11 -19 33 -39 48 -44 50 -17 50 -96 1
-122 -21 -11 -25 -7 -32 34 -3 16 -12 19 -62 20 -55 1 -60 3 -91 39 -18 21
-35 47 -38 57 -4 17 0 20 36 20 23 1 56 7 72 15 42 19 43 19 66 -19z m1280 14
c10 -6 19 -15 19 -21 0 -10 -167 -328 -179 -341 -3 -4 -82 2 -176 12 -154 17
-202 19 -164 6 22 -8 422 -45 564 -52 72 -4 137 -10 146 -15 10 -5 18 -25 21
-49 l4 -40 -503 0 -503 0 10 26 c12 32 13 115 1 146 -9 23 -7 24 58 36 58 11
86 9 240 -12 96 -14 177 -23 181 -21 4 3 60 79 124 170 65 91 122 165 127 165
6 0 19 -5 30 -10z m-1064 -141 c18 -16 16 -67 -7 -206 -25 -149 -29 -153 -149
-153 -47 0 -122 7 -166 15 -48 9 -98 13 -125 9 -26 -4 -41 -3 -37 2 5 5 -16
14 -50 20 l-58 12 65 2 c36 1 142 11 235 23 l170 22 5 123 c4 109 7 125 25
138 21 16 68 12 92 -7z m-233 -178 c5 -7 21 -21 37 -30 l30 -18 -43 -12 c-24
-6 -115 -15 -203 -21 -88 -6 -190 -13 -227 -17 -48 -4 -68 -2 -68 6 0 6 -15
11 -32 12 l-33 1 30 8 c17 5 111 18 209 30 192 22 226 34 262 88 l18 27 6 -31
c4 -17 10 -36 14 -43z m-1628 -70 c90 -66 134 -139 141 -234 5 -53 -14 -327
-34 -494 l-6 -53 -86 6 c-47 4 -87 8 -88 9 -2 1 -6 119 -9 262 l-7 261 -140
82 c-78 45 -148 79 -158 77 -9 -2 -84 -50 -167 -106 l-151 -102 -6 -52 c-7
-62 -35 -385 -35 -408 0 -13 -11 -14 -82 -6 -46 4 -84 10 -87 12 -9 9 -22 299
-19 415 4 147 23 198 92 255 90 74 95 75 437 75 253 0 309 3 325 15 27 20 36
19 80 -14z m-880 -93 c-20 -23 -41 -57 -48 -75 l-12 -33 -189 0 c-211 0 -258
-8 -312 -53 -79 -65 -75 -4 -75 -989 l0 -878 -220 0 -220 0 0 205 0 205 155 0
155 0 0 438 -1 437 -154 160 -154 160 0 95 c-1 126 6 161 43 222 39 64 89 105
158 129 48 17 93 18 481 19 l429 0 -36 -42z m1907 7 l17 -35 180 0 c125 0 180
3 180 11 0 12 65 9 230 -10 52 -7 111 -9 131 -6 36 6 73 32 81 56 3 10 14 9
47 -4 23 -10 84 -28 134 -40 91 -22 100 -22 623 -17 l531 5 22 -37 22 -38
-1533 0 -1533 1 -35 74 -36 75 461 0 461 0 17 -35z m-1312 -60 l94 -55 -174 0
c-100 0 -171 4 -165 9 8 8 147 101 150 101 1 0 44 -25 95 -55z m179 -121 c6
-14 10 -52 10 -85 l0 -59 -306 0 -306 0 6 23 c3 12 6 36 6 53 0 26 9 37 57 70
l57 39 205 5 c224 5 254 0 271 -46z m-840 -49 l0 -95 -92 0 c-148 0 -209 -25
-251 -103 l-22 -42 -3 -782 -3 -783 -94 0 -95 0 0 863 c0 541 4 875 10 898 6
20 25 52 43 72 56 64 68 67 300 67 l207 0 0 -95z m4256 59 c21 -16 47 -48 58
-70 20 -37 21 -54 21 -404 l0 -365 -1045 -5 c-575 -3 -1047 -4 -1049 -2 -12 7
58 64 89 73 23 6 343 9 938 7 l902 -3 0 235 c0 208 -3 240 -19 276 -20 44 -56
74 -110 92 -25 9 -416 12 -1487 12 l-1454 0 0 95 0 95 1559 -2 1559 -3 38 -31z
m-942 -324 c38 -36 20 -101 -32 -121 -32 -12 -38 -5 -18 23 20 28 21 82 1 98
-8 7 -15 17 -15 22 0 14 42 -1 64 -22z m304 19 c42 -14 61 -61 41 -98 -15 -26
-66 -58 -76 -47 -4 3 2 15 12 26 23 25 24 74 2 98 -16 17 -22 32 -13 32 1 0
17 -5 34 -11z m300 0 c42 -14 61 -61 41 -98 -15 -26 -66 -58 -76 -47 -3 3 4
17 16 32 26 33 27 54 1 87 -31 39 -29 42 18 26z m-658 -41 c13 -25 13 -31 0
-55 -20 -35 -50 -36 -69 -2 -12 22 -13 31 -1 58 16 40 47 39 70 -1z m322 15
c10 -9 18 -27 18 -41 0 -27 -25 -62 -45 -62 -33 0 -51 74 -25 105 16 19 29 19
52 -2z m300 0 c24 -22 23 -65 -3 -89 -28 -25 -53 -8 -57 40 -5 58 24 82 60 49z
m-4602 -680 l0 -436 -227 6 c-124 4 -320 7 -435 7 l-208 0 0 30 0 30 228 0
c125 0 305 3 400 7 l172 6 0 387 c0 213 3 390 7 393 3 4 19 7 35 7 l28 0 0
-437z m1315 172 c39 -16 55 -46 55 -105 0 -59 -16 -89 -55 -105 -44 -19 -632
-22 -685 -4 -78 28 -82 182 -5 215 46 20 642 20 690 -1z m4332 -30 c50 -21 72
-42 94 -90 18 -38 19 -88 19 -928 0 -976 3 -930 -61 -985 -54 -46 -54 -46 -88
19 -18 34 -50 85 -72 115 -22 30 -35 54 -29 54 7 0 10 194 10 600 l0 600
-1195 0 -1195 0 0 -600 0 -600 773 0 c705 0 775 -1 796 -17 13 -9 56 -29 95
-44 l71 -27 3 -76 3 -76 -936 0 c-912 0 -937 1 -974 20 -41 20 -81 63 -81 86
0 10 14 14 46 14 41 0 45 2 38 18 -5 9 -9 442 -9 962 l0 944 25 13 c20 10 297
13 1328 13 1150 0 1307 -2 1339 -15z m-3312 -416 c24 -12 79 -52 122 -90 43
-38 96 -78 118 -89 76 -37 149 -22 223 44 22 20 42 36 46 36 3 0 6 -20 6 -45
0 -39 -5 -50 -39 -84 -55 -55 -97 -75 -156 -74 -64 0 -91 15 -190 101 -123
106 -192 134 -276 112 -45 -12 -68 -33 -249 -227 -88 -94 -138 -118 -250 -118
-84 0 -86 1 -220 65 -134 64 -136 65 -220 65 -72 0 -93 -4 -142 -28 -72 -35
-146 -102 -204 -183 l-46 -64 -64 0 -64 0 0 55 0 55 68 0 67 0 30 48 c49 77
140 161 213 195 58 28 78 32 147 32 78 0 83 -2 205 -62 150 -74 208 -89 282
-74 94 21 130 43 218 141 126 139 162 173 200 192 48 24 121 23 175 -3z m-1
-120 c23 -11 78 -52 121 -91 44 -39 98 -79 120 -89 76 -35 161 -17 238 51 l37
32 0 -271 0 -271 -651 2 -651 3 -13 39 c-16 46 -57 91 -107 117 -34 17 -61 19
-288 19 -139 0 -250 4 -250 9 0 5 20 36 44 68 74 101 164 163 268 185 76 16
143 0 261 -62 171 -90 254 -99 373 -40 60 29 111 77 218 204 95 112 185 143
280 95z m2187 -654 c0 -4 -81 -53 -180 -110 l-181 -103 0 208 0 208 181 -98
c99 -54 180 -101 180 -105z m-4153 158 l3 -23 497 0 c496 0 497 0 536 -23 52
-30 76 -79 83 -172 l6 -75 -1098 0 -1098 0 5 85 c7 102 28 148 87 190 41 29
48 30 179 36 75 3 286 5 467 5 l330 -1 3 -22z m4516 -81 c3 -20 8 -58 11 -84
5 -42 9 -46 30 -45 41 3 30 -16 -26 -45 -65 -33 -67 -34 -101 -5 l-27 22 28
83 c28 81 56 126 71 117 5 -3 11 -22 14 -43z m393 -184 c114 -53 157 -193 89
-283 -29 -37 -92 -75 -126 -75 -32 0 -23 13 29 42 59 32 97 98 87 151 -20 106
-136 189 -240 172 -27 -4 -37 -3 -31 4 27 26 125 20 192 -11z m-3789 -340 c2
-293 3 -298 23 -298 20 0 20 -4 17 -197 -3 -198 -3 -198 -31 -239 -15 -22 -46
-51 -70 -65 l-42 -24 -907 -3 -908 -2 0 24 c0 13 3 37 6 53 l6 29 56 -7 c99
-13 211 -10 240 5 32 17 125 112 176 180 l36 49 0 -37 0 -36 70 0 70 0 2 118
c1 64 1 138 -1 163 -1 31 3 50 13 59 20 16 20 30 1 30 -8 0 -15 5 -15 10 0 6
-30 10 -70 10 l-70 0 0 -99 0 -99 -45 -36 -45 -37 0 250 0 251 -65 0 -65 0 0
-302 0 -303 -33 -26 c-49 -39 -52 -40 -93 -25 -36 13 -37 15 -11 15 l27 1 0
245 0 245 -65 0 -65 0 0 -230 c0 -177 -3 -230 -12 -230 -7 0 -42 11 -78 24
-62 22 -65 25 -68 58 -2 29 3 41 32 70 35 35 36 38 36 115 0 60 5 85 20 110
l19 32 -21 15 c-12 9 -45 21 -74 27 -45 10 -60 9 -101 -5 -26 -9 -56 -20 -65
-23 -17 -5 -18 9 -18 209 0 118 3 218 7 221 3 4 495 6 1092 5 l1086 -3 3 -297z
m3622 247 c0 -23 41 -55 71 -55 41 0 54 -58 23 -106 -13 -19 -16 -40 -12 -94
4 -57 2 -72 -12 -85 -35 -32 -80 -3 -80 52 0 28 -3 33 -24 33 -39 0 -76 46
-76 94 0 51 29 115 66 150 33 29 44 33 44 11z m-2660 -120 l0 -75 -450 0 -450
0 0 75 0 75 450 0 450 0 0 -75z m-2922 -426 c-4 -69 -6 -73 -42 -105 -34 -29
-37 -37 -35 -75 3 -35 0 -43 -16 -49 -11 -4 -29 -4 -39 0 -17 6 -19 15 -17 74
2 52 -2 72 -14 86 -27 30 -14 50 49 75 33 13 69 33 80 45 11 11 24 20 29 20 5
0 7 -32 5 -71z m3347 -38 c21 -41 71 -77 125 -91 32 -7 315 -10 958 -8 l912 3
0 -32 0 -33 -1660 -2 -1660 -3 0 98 0 97 655 0 654 0 16 -29z m2568 -54 c26
-22 21 -27 -28 -27 -45 0 -45 0 -45 35 l0 36 28 -16 c15 -8 35 -21 45 -28z
m235 -564 c2 -59 -1 -93 -8 -93 -5 0 -24 25 -41 55 -27 48 -33 54 -47 43 -14
-12 -15 -8 -9 27 4 22 7 46 7 53 0 9 14 12 48 10 l47 -3 3 -92z m-723 62 c83
-17 243 -19 315 -4 28 6 54 9 57 6 2 -3 12 -171 20 -374 l16 -368 47 -217 47
-218 -67 0 -67 0 -57 198 c-64 217 -146 660 -146 784 0 39 -4 68 -10 68 -6 0
-10 -33 -10 -79 0 -44 -14 -167 -31 -273 l-31 -193 7 -288 7 -288 -63 3 -63 3
-37 250 -36 250 13 335 c7 184 14 354 14 378 0 23 1 42 3 42 1 0 34 -7 72 -15z
m-5935 -307 c0 -18 3 -43 6 -56 5 -19 3 -22 -17 -20 -17 2 -28 -6 -45 -37 -19
-33 -24 -36 -30 -22 -7 19 3 143 12 159 3 4 21 8 40 8 32 0 34 -2 34 -32z
m531 -117 c4 -3 18 -112 32 -241 l26 -235 -36 -292 -37 -293 -53 0 -53 0 0
273 0 273 -34 138 c-26 108 -32 145 -25 174 5 20 8 46 8 57 l0 20 -9 -20 c-5
-11 -27 -119 -50 -240 -29 -158 -58 -275 -102 -417 l-63 -198 -63 0 c-56 0
-63 2 -58 18 3 9 25 115 50 236 l46 218 0 275 0 275 208 -7 c114 -4 210 -10
213 -14z"/>
<path d="M11102 4298 c3 -52 4 -53 36 -56 17 -2 32 -7 32 -13 0 -5 192 -9 490
-9 l490 0 0 45 c0 38 -3 45 -20 45 -13 0 -20 7 -20 20 0 20 -7 20 -506 20
l-505 0 3 -52z m988 22 c0 -7 -160 -10 -460 -10 l-460 0 0 -25 c0 -20 -5 -25
-25 -25 -22 0 -25 4 -25 35 l0 35 485 0 c317 0 485 -3 485 -10z"/>
<path d="M10764 4324 c-101 -50 -80 -207 32 -229 67 -14 144 50 144 120 0 43
-35 94 -75 111 -43 18 -62 17 -101 -2z"/>
<path d="M11107 4163 c-4 -3 -7 -24 -7 -45 0 -35 2 -38 29 -38 17 0 33 -4 36
-10 4 -7 293 -10 836 -10 l829 0 0 30 c0 23 -4 30 -20 30 -15 0 -20 7 -20 25
l0 25 -838 0 c-461 0 -842 -3 -845 -7z m1673 -28 c0 -13 -96 -15 -804 -15
-705 0 -805 -2 -810 -15 -3 -8 -15 -15 -26 -15 -16 0 -20 7 -20 30 l0 30 830
0 c731 0 830 -2 830 -15z"/>
<path d="M7065 3370 c-15 -17 -16 -24 -7 -45 15 -32 37 -41 68 -27 46 22 25
92 -29 92 -8 0 -22 -9 -32 -20z"/>
<path d="M7300 3372 c-46 -37 9 -106 59 -75 22 14 25 57 6 77 -21 21 -38 20
-65 -2z"/>
<path d="M7515 3370 c-24 -27 -13 -68 22 -76 51 -13 82 38 47 77 -22 24 -46
24 -69 -1z"/>
<path d="M8120 3008 c-90 -61 -91 -185 -1 -245 62 -42 141 -26 196 39 24 29
27 38 23 91 -4 51 -9 63 -40 94 -31 31 -45 37 -90 41 -44 3 -59 0 -88 -20z"/>
<path d="M8490 2895 l0 -25 210 0 210 0 0 25 0 25 -210 0 -210 0 0 -25z"/>
<path d="M8060 2600 c0 -43 3 -50 20 -50 11 0 20 -4 20 -10 0 -7 147 -10 421
-10 l422 0 -6 50 c-3 28 -9 55 -12 60 -4 6 -167 10 -436 10 l-429 0 0 -50z
m850 15 c0 -13 -52 -15 -405 -15 -353 0 -405 -2 -405 -15 0 -8 -7 -15 -15 -15
-10 0 -15 10 -15 30 l0 30 420 0 c367 0 420 -2 420 -15z"/>
<path d="M8060 2455 c0 -38 3 -45 20 -45 11 0 20 -4 20 -10 0 -7 147 -10 420
-10 l420 0 0 29 c0 16 -4 41 -10 55 l-10 26 -430 0 -430 0 0 -45z m850 20 c0
-13 -52 -15 -404 -15 -395 0 -404 0 -409 -20 -8 -33 -27 -23 -27 15 l0 35 420
0 c367 0 420 -2 420 -15z"/>
<path d="M8060 2310 c0 -43 3 -50 20 -50 11 0 20 -4 20 -10 0 -7 147 -10 421
-10 l422 0 -6 50 c-3 28 -9 55 -12 60 -4 6 -167 10 -436 10 l-429 0 0 -50z
m850 15 c0 -13 -52 -15 -405 -15 -353 0 -405 -2 -405 -15 0 -8 -7 -15 -15 -15
-10 0 -15 10 -15 30 l0 30 420 0 c367 0 420 -2 420 -15z"/>
</g>
</svg>
